<svg width="271" height="272" viewBox="0 0 271 272" fill="none" xmlns="http://www.w3.org/2000/svg">
<path d="M237.16 218.195L191.76 171.195C194.76 165.995 197.16 160.395 198.66 154.395L264.16 150.495L200.66 134.995C200.46 128.795 199.36 122.795 197.56 117.095L250.86 78.795L189.06 99.595C185.56 94.595 181.46 90.095 176.86 86.195L201.36 25.295L160.26 75.995C154.76 73.595 148.86 71.995 142.76 71.195L130.86 6.59503L123.16 71.495C115.26 72.795 107.76 75.395 101.06 79.195L52.8602 34.595L85.6602 91.095C81.4602 95.495 77.8602 100.395 74.8602 105.795L10.3602 93.795L68.2602 123.995C67.3602 128.395 66.8602 132.895 66.8602 137.495C66.8602 138.995 66.9602 140.595 67.0602 142.095L6.06024 166.595L71.1602 161.195C73.3602 166.895 76.2602 172.295 79.8602 177.195L41.4602 230.395L93.5602 190.995C98.3602 194.595 103.76 197.595 109.46 199.895L105.46 265.395L128.46 204.295C130.26 204.395 132.06 204.495 133.96 204.495C138.26 204.495 142.46 204.095 146.56 203.295L178.16 260.795L164.96 196.795C170.36 193.995 175.36 190.395 179.76 186.295L237.16 218.195Z" fill="#E8DE28" stroke="black" stroke-width="12" stroke-miterlimit="10" stroke-linejoin="round"/>
<path d="M93.6602 113.295H127.66V139.695C127.66 141.195 127.26 142.495 126.56 143.795C125.86 144.995 124.86 145.995 123.66 146.695C122.46 147.395 121.06 147.795 119.66 147.795H93.6602V140.095H119.26C119.46 140.095 119.66 139.995 119.76 139.895C119.86 139.795 119.96 139.595 119.96 139.395V121.595C119.96 121.395 119.86 121.195 119.76 121.095C119.66 120.995 119.46 120.895 119.26 120.895H93.6602V113.295Z" fill="black"/>
<path d="M175.96 121.095H150.36C150.16 121.095 149.96 121.195 149.86 121.295C149.76 121.395 149.66 121.595 149.66 121.795V139.595C149.66 139.795 149.76 139.995 149.86 140.095C149.96 140.195 150.16 140.295 150.36 140.295H175.96V147.995H150.06C148.56 147.995 147.26 147.595 146.06 146.895C144.86 146.195 143.86 145.195 143.16 143.995C142.46 142.795 142.06 141.395 142.06 139.895V113.495H176.06V121.095H175.96Z" fill="black"/>
<path d="M111.16 159.995V153.395H118.56V159.695C118.56 159.895 118.66 159.995 118.76 160.195C118.86 160.295 119.06 160.395 119.26 160.395H154.86C154.86 164.495 151.56 167.895 147.36 167.895H118.96C117.56 167.895 116.26 167.495 115.06 166.795C113.86 166.095 112.96 165.095 112.16 163.895C111.46 162.695 111.16 161.395 111.16 159.995Z" fill="black"/>
</svg>
