<svg width="147" height="215" viewBox="0 0 147 215" fill="none" xmlns="http://www.w3.org/2000/svg">
<g clip-path="url(#clip0_2_155)">
<path d="M113.45 87.4453L120.15 6.64526L96.85 78.4453C89.55 75.6453 81.65 74.1453 73.45 74.1453C67.35 74.1453 61.45 74.9453 55.85 76.4453L27.35 15.1453L41.25 82.4453C20.5499 93.7453 6.44995 115.845 6.44995 141.145C6.44995 178.145 36.45 208.145 73.45 208.145C110.45 208.145 140.45 178.145 140.45 141.145C140.45 119.145 129.85 99.6453 113.45 87.4453Z" fill="#FF2727" stroke="black" stroke-width="12" stroke-miterlimit="10" stroke-linejoin="round"/>
<path d="M32.35 115.945H66.35V142.345C66.35 143.845 65.95 145.145 65.25 146.445C64.55 147.645 63.55 148.645 62.35 149.345C61.15 150.045 59.75 150.445 58.35 150.445H32.35V142.745H57.95C58.15 142.745 58.35 142.645 58.45 142.545C58.55 142.445 58.65 142.245 58.65 142.045V124.245C58.65 124.045 58.55 123.845 58.45 123.745C58.35 123.645 58.15 123.545 57.95 123.545H32.35V115.945Z" fill="black"/>
<path d="M114.55 123.645H88.95C88.75 123.645 88.55 123.745 88.45 123.845C88.35 123.945 88.25 124.145 88.25 124.345V142.145C88.25 142.345 88.35 142.545 88.45 142.645C88.55 142.745 88.75 142.845 88.95 142.845H114.55V150.545H88.65C87.15 150.545 85.85 150.145 84.65 149.445C83.45 148.745 82.45 147.745 81.75 146.545C81.05 145.345 80.65 143.945 80.65 142.445V116.045H114.65V123.645H114.55Z" fill="black"/>
<path d="M49.75 162.645V156.045H57.15V162.345C57.15 162.545 57.25 162.645 57.35 162.845C57.45 162.945 57.65 163.045 57.85 163.045H93.45C93.45 167.145 90.15 170.545 85.95 170.545H57.55C56.15 170.545 54.85 170.145 53.65 169.445C52.45 168.745 51.55 167.745 50.75 166.545C50.05 165.345 49.75 164.045 49.75 162.645Z" fill="black"/>
</g>
<defs>
<clipPath id="clip0_2_155">
<rect width="146" height="213.5" fill="white" transform="translate(0.449951 0.645264)"/>
</clipPath>
</defs>
</svg>
