<svg width="159" height="159" viewBox="0 0 159 159" fill="none" xmlns="http://www.w3.org/2000/svg">
<g clip-path="url(#clip0_2_76)">
<path d="M79.45 152.5C119.767 152.5 152.45 119.817 152.45 79.5C152.45 39.1832 119.767 6.5 79.45 6.5C39.1332 6.5 6.44995 39.1832 6.44995 79.5C6.44995 119.817 39.1332 152.5 79.45 152.5Z" fill="#3FFF24"/>
<path d="M79.45 12.5C116.45 12.5 146.45 42.5 146.45 79.5C146.45 116.5 116.45 146.5 79.45 146.5C42.45 146.5 12.45 116.5 12.45 79.5C12.45 42.5 42.45 12.5 79.45 12.5ZM79.45 0.5C35.85 0.5 0.449951 35.9 0.449951 79.5C0.449951 123.1 35.85 158.5 79.45 158.5C123.05 158.5 158.45 123.1 158.45 79.5C158.45 35.9 123.05 0.5 79.45 0.5Z" fill="black"/>
<path d="M38.35 52.2H72.35V78.5999C72.35 80.0999 71.95 81.3999 71.25 82.6999C70.55 83.8999 69.55 84.8999 68.35 85.5999C67.15 86.2999 65.75 86.6999 64.35 86.6999H38.35V79H63.95C64.15 79 64.35 78.9 64.45 78.8C64.55 78.7 64.65 78.5 64.65 78.3V60.5999C64.65 60.3999 64.55 60.1999 64.45 60.0999C64.35 59.9999 64.15 59.9 63.95 59.9H38.35V52.2Z" fill="black"/>
<path d="M120.55 60H94.95C94.75 60 94.55 60.1001 94.45 60.2001C94.35 60.3001 94.25 60.5001 94.25 60.7001V78.5C94.25 78.7001 94.35 78.9 94.45 79C94.55 79.1 94.75 79.2 94.95 79.2H120.55V86.9001H94.65C93.15 86.9001 91.85 86.5001 90.65 85.8001C89.45 85.1001 88.45 84.1001 87.75 82.9001C87.05 81.7001 86.65 80.3001 86.65 78.8001V52.3H120.65V60H120.55Z" fill="black"/>
<path d="M55.75 98.9V92.3H63.15V98.6C63.15 98.8 63.25 98.9 63.35 99.1C63.45 99.2 63.65 99.3 63.85 99.3H99.45C99.45 103.4 96.15 106.8 91.95 106.8H63.55C62.15 106.8 60.85 106.4 59.65 105.7C58.45 105 57.55 104 56.75 102.8C56.05 101.6 55.75 100.3 55.75 98.9Z" fill="black"/>
</g>
<defs>
<clipPath id="clip0_2_76">
<rect width="158" height="158" fill="white" transform="translate(0.449951 0.5)"/>
</clipPath>
</defs>
</svg>
