<svg width="186" height="200" viewBox="0 0 186 200" fill="none" xmlns="http://www.w3.org/2000/svg">
<path d="M82.63 192.162C41.53 192.162 8.13 158.762 8.13 117.662C8.13 113.862 8.43001 110.162 8.93001 106.462L17.43 51.7621L41.13 51.1621L98.13 14.6621L95.63 42.6621L167.53 29.1621L138.33 68.1621C150.33 81.7621 157.13 99.3621 157.13 117.662C157.13 158.762 123.73 192.162 82.63 192.162Z" fill="#E548C7"/>
<path d="M89.33 29.2621L87.43 50.9621C88.63 51.0621 89.73 51.1621 90.93 51.2621L150.03 40.1621L128.53 68.8621C141.53 81.0621 149.63 98.4621 149.63 117.662C149.63 154.662 119.63 184.662 82.63 184.662C45.63 184.662 15.63 154.662 15.63 117.662C15.63 114.262 15.93 110.862 16.43 107.562L23.93 59.0621L43.43 58.5621L89.33 29.2621ZM106.93 0.162109L81.23 16.5621L38.83 43.7621L23.43 44.1621L10.93 44.4621L9.03 56.7621L1.53 105.262C0.930005 109.362 0.630005 113.562 0.630005 117.662C0.630005 162.862 37.43 199.662 82.63 199.662C127.83 199.662 164.63 162.862 164.63 117.662C164.63 99.6621 158.63 82.1621 147.83 67.9621L162.03 49.1621L185.13 18.3621L147.23 25.4621L104.03 33.5621L104.33 30.5621L106.93 0.162109Z" fill="black"/>
<path d="M75.53 135.962H41.53V109.562C41.53 108.062 41.93 106.762 42.63 105.462C43.33 104.262 44.33 103.262 45.53 102.562C46.73 101.862 48.13 101.462 49.53 101.462H75.43V109.162H49.93C49.73 109.162 49.53 109.262 49.43 109.362C49.33 109.462 49.23 109.662 49.23 109.862V127.662C49.23 127.862 49.33 128.062 49.43 128.162C49.53 128.262 49.73 128.362 49.93 128.362H75.53V135.962Z" fill="black"/>
<path d="M89.73 128.362H115.33C115.53 128.362 115.73 128.262 115.83 128.162C115.93 128.062 116.03 127.862 116.03 127.662V109.862C116.03 109.662 115.93 109.462 115.83 109.362C115.73 109.262 115.53 109.162 115.33 109.162H89.73V101.462H115.63C117.13 101.462 118.43 101.862 119.63 102.562C120.83 103.262 121.83 104.262 122.53 105.462C123.23 106.662 123.63 108.062 123.63 109.562V135.962H89.63V128.362H89.73Z" fill="black"/>
<path d="M58.9301 148.162V141.562H66.3301V147.862C66.3301 148.062 66.4301 148.162 66.5301 148.362C66.6301 148.462 66.8301 148.562 67.0301 148.562H102.63C102.63 152.662 99.3301 156.062 95.1301 156.062H66.7301C65.3301 156.062 64.0301 155.662 62.8301 154.962C61.6301 154.262 60.7301 153.262 59.9301 152.062C59.2301 150.862 58.9301 149.562 58.9301 148.162Z" fill="black"/>
</svg>
