<svg width="159" height="214" viewBox="0 0 159 214" fill="none" xmlns="http://www.w3.org/2000/svg">
<g clip-path="url(#clip0_2_128)">
<path d="M79.45 207.5C39.15 207.5 6.44995 174.8 6.44995 134.5C6.44995 100.6 29.65 71.4 62.25 63.6L71.0499 11C71.5499 8.1 73.95 6 76.95 6C76.95 6 76.9499 6 77.0499 6C79.9499 6 82.45 8 82.95 10.9L92.75 62.7C127.05 69 152.45 99.1 152.45 134.5C152.45 174.8 119.75 207.5 79.45 207.5Z" fill="#277AFF"/>
<path d="M76.95 12L87.5499 68C120.75 72 146.45 100.2 146.45 134.5C146.45 171.5 116.45 201.5 79.45 201.5C42.45 201.5 12.45 171.5 12.45 134.5C12.45 101.6 36.25 74.2 67.5499 68.6L76.95 12ZM76.95 0H76.85C71.05 0.1 66.1499 4.3 65.1499 10L57.0499 58.7C23.75 68.5 0.449951 99.1 0.449951 134.5C0.449951 178.1 35.85 213.5 79.45 213.5C123.05 213.5 158.45 178.1 158.45 134.5C158.45 97.6 132.95 66 97.85 57.7L88.75 9.8C87.65 4.1 82.75 0 76.95 0Z" fill="black"/>
<path d="M38.0499 141.5V107.5H64.4499C65.9499 107.5 67.2499 107.9 68.5499 108.6C69.7499 109.3 70.7499 110.3 71.4499 111.5C72.1499 112.7 72.5499 114.1 72.5499 115.5V141.4H64.8499V115.8C64.8499 115.6 64.7499 115.4 64.6499 115.3C64.5499 115.2 64.3499 115.1 64.1499 115.1H46.4499C46.2499 115.1 46.0499 115.2 45.9499 115.3C45.8499 115.4 45.7499 115.6 45.7499 115.8V141.4H38.0499V141.5Z" fill="black"/>
<path d="M113.15 141.5V115.9C113.15 115.7 113.05 115.5 112.95 115.4C112.85 115.3 112.65 115.2 112.45 115.2H94.6499C94.4499 115.2 94.2499 115.3 94.1499 115.4C94.0499 115.5 93.9499 115.7 93.9499 115.9V141.5H86.2499V115.6C86.2499 114.1 86.6499 112.8 87.3499 111.6C88.0499 110.4 89.0499 109.4 90.2499 108.7C91.4499 108 92.8499 107.6 94.3499 107.6H120.75V141.6H113.15V141.5Z" fill="black"/>
<path d="M55.7499 153.9L99.4499 154.2C99.4499 158.3 96.1499 161.7 91.9499 161.7H63.5499C62.1499 161.7 60.8499 161.3 59.6499 160.6C58.4499 159.9 57.5499 158.9 56.7499 157.7C56.0499 156.6 55.7499 155.3 55.7499 153.9Z" fill="black"/>
</g>
<defs>
<clipPath id="clip0_2_128">
<rect width="158" height="213.5" fill="white" transform="translate(0.449951)"/>
</clipPath>
</defs>
</svg>
