<svg width="194" height="67" viewBox="0 0 194 67" fill="none" xmlns="http://www.w3.org/2000/svg">
<path d="M27.65 64.05C13.65 64.05 2.25 52.65 2.25 38.65C2.25 37.35 2.35 36.1 2.55 34.8L5.45 16.2L13.4 16L32.4 3.85001L31.6 13.2L55.95 8.65001L49.55 17.05H191.75V64.05H27.65Z" fill="#E548C7"/>
<path d="M30 7.75L29.35 15.3C29.75 15.35 30.15 15.35 30.55 15.4L51.2 11.55L45.6 19.05H189.75V62.05C189.75 62.05 29.05 62.05 27.65 62.05C14.75 62.05 4.25 51.6 4.25 38.65C4.25 37.45 4.35 36.25 4.5 35.1L7.1 18.15L13.95 18L30 7.75ZM34.7 0L27.85 4.4L12.75 14.05L7.05 14.2L3.7 14.3L3.2 17.6L0.55 34.5C0.35 35.9 0.25 37.3 0.25 38.65C0.25 53.75 12.55 66.05 27.65 66.05H189.75H193.75V62.05V19.05V15.05H189.75H53.55L54.4 13.95L60.55 5.75L50.45 7.65L33.75 10.75L34 8.1L34.7 0Z" fill="black"/>
<path d="M25.15 45.05H13.3V35.8C13.3 35.3 13.45 34.8 13.7 34.4C13.95 33.95 14.3 33.65 14.7 33.4C15.1 33.15 15.6 33 16.1 33H25.15V35.7H16.2C16.15 35.7 16.05 35.7 16.05 35.75C16 35.8 16 35.85 16 35.9V42.1C16 42.15 16 42.25 16.05 42.25C16.1 42.3 16.15 42.3 16.2 42.3H25.15V45.05Z" fill="black"/>
<path d="M30.15 42.35H39.1C39.15 42.35 39.25 42.35 39.25 42.3C39.3 42.25 39.3 42.2 39.3 42.15V35.9C39.3 35.85 39.3 35.75 39.25 35.75C39.2 35.7 39.15 35.7 39.1 35.7H30.15V33H39.2C39.7 33 40.2 33.15 40.6 33.4C41 33.65 41.35 34 41.6 34.4C41.85 34.85 42 35.3 42 35.8V45.05H30.15V42.35Z" fill="black"/>
<path d="M19.35 49.3V47H21.95V49.2C21.95 49.25 21.95 49.3 22 49.35C22.05 49.4 22.1 49.4 22.15 49.4H34.6C34.6 50.85 33.45 52 32 52H22.1C21.6 52 21.15 51.85 20.75 51.6C20.35 51.35 20 51 19.75 50.6C19.5 50.25 19.35 49.8 19.35 49.3Z" fill="black"/>
<path d="M65.05 57.45C64 57.45 63.05 57.2 62.2 56.65C61.35 56.1 60.65 55.45 60.15 54.55C59.65 53.7 59.4 52.75 59.4 51.7V49.4C59.4 45.75 62.35 42.8 66 42.8H77.45V39.95C77.45 39.9 77.4 39.85 77.35 39.8C77.3 39.75 77.25 39.7 77.2 39.7H59.4C59.4 36.55 62 33.95 65.15 34L83.35 34.05L83.2 57.45H65.05ZM65.3 51.7H77.35C77.35 49.6 75.65 47.95 73.6 47.95H65.05V51.45C65.05 51.5 65.1 51.55 65.15 51.6C65.2 51.7 65.25 51.7 65.3 51.7Z" fill="black"/>
<path d="M86.35 57.45V26.3H92.1V34H104.45C105.5 34 106.45 34.25 107.3 34.8C108.15 35.35 108.85 36 109.35 36.9C109.85 37.75 110.1 38.7 110.1 39.75V51.8C110.1 52.85 109.85 53.75 109.35 54.65C108.85 55.5 108.15 56.2 107.3 56.75C106.45 57.3 105.5 57.55 104.45 57.55H86.35V57.45ZM92.35 51.7H104.15C104.2 51.7 104.25 51.65 104.3 51.6C104.35 51.55 104.4 51.5 104.4 51.45V39.95C104.4 39.9 104.35 39.85 104.3 39.8C104.25 39.75 104.2 39.7 104.15 39.7H92.35C92.3 39.7 92.25 39.75 92.2 39.8C92.15 39.85 92.1 39.9 92.1 39.95V51.45C92.1 51.5 92.15 51.55 92.2 51.6C92.25 51.7 92.3 51.7 92.35 51.7Z" fill="black"/>
<path d="M116.1 56.65C115.25 56.1 114.55 55.45 114 54.55C113.45 53.7 113.2 52.75 113.2 51.7V34.05L131.3 33.95C132.35 33.95 133.3 34.2 134.15 34.75C135 35.3 135.7 35.95 136.2 36.85C136.7 37.7 136.95 38.65 136.95 39.7V51.75C136.95 52.8 136.7 53.7 136.2 54.6C135.7 55.45 135 56.15 134.15 56.7C133.3 57.25 132.35 57.5 131.3 57.5H118.9C117.9 57.45 116.95 57.2 116.1 56.65ZM119.25 51.7H131.05C131.1 51.7 131.15 51.65 131.2 51.6C131.25 51.55 131.3 51.5 131.3 51.45V39.95C131.3 39.9 131.25 39.85 131.2 39.8C131.15 39.75 131.1 39.7 131.05 39.7H119.25C119.2 39.7 119.15 39.75 119.1 39.8C119.05 39.85 119 39.9 119 39.95V51.45C119 51.5 119.05 51.55 119.1 51.6C119.1 51.7 119.15 51.7 119.25 51.7Z" fill="black"/>
<path d="M143.1 56.65C142.25 56.1 141.55 55.45 141.05 54.55C140.55 53.7 140.3 52.75 140.3 51.7V34H140.6C143.6 34 146.05 36.45 146.05 39.45V51.5C146.05 51.55 146.1 51.6 146.15 51.65C146.2 51.7 146.25 51.75 146.3 51.75H158.1C158.15 51.75 158.2 51.7 158.25 51.65C158.3 51.6 158.35 51.55 158.35 51.5V34C161.5 34 164.1 36.55 164.1 39.75V51.75C164.1 52.8 163.85 53.7 163.35 54.6C162.85 55.45 162.15 56.15 161.3 56.7C160.45 57.25 159.5 57.5 158.45 57.5H146.05C144.95 57.45 143.95 57.2 143.1 56.65Z" fill="black"/>
<path d="M170.3 56.65C169.45 56.1 168.75 55.45 168.2 54.55C167.65 53.7 167.4 52.75 167.4 51.7V26.9H173.15C173.15 30.8 176.3 34 180.25 34H182.1C182.1 37.15 179.55 39.75 176.35 39.75H173.15V51.5C173.15 51.55 173.2 51.6 173.25 51.65C173.3 51.7 173.35 51.75 173.4 51.75H182.1V57.5H173.15C172.15 57.45 171.15 57.2 170.3 56.65Z" fill="black"/>
</svg>
