<svg width="172" height="78" viewBox="0 0 172 78" fill="none" xmlns="http://www.w3.org/2000/svg">
<g clip-path="url(#clip0_2_190)">
<path d="M41.797 27.7853L43.897 2.58527L35.747 27.7853H33.447C31.447 27.2353 29.297 26.9353 27.097 26.9353C24.897 26.9353 22.797 27.2353 20.747 27.7853L10.497 5.63527L15.497 29.8853C8.04702 33.9853 2.94702 41.9353 2.94702 51.0353C2.94702 63.5853 12.547 73.9353 24.797 75.0353L169.047 75.2353V27.7353H41.797V27.7853Z" fill="#FF2727" stroke="black" stroke-width="4.14885" stroke-miterlimit="10" stroke-linejoin="round"/>
<path d="M12.2971 41.9353H24.5471V51.4353C24.5471 51.9853 24.3971 52.4353 24.1471 52.8853C23.8971 53.3353 23.5471 53.6853 23.0971 53.9353C22.6471 54.1853 22.1971 54.3353 21.6471 54.3353H12.2971V51.5853H21.4971C21.5471 51.5853 21.6471 51.5853 21.6971 51.5353C21.7471 51.4853 21.7471 51.4353 21.7471 51.3353V44.9853C21.7471 44.9353 21.7471 44.8353 21.6971 44.7853C21.6471 44.7353 21.5971 44.7353 21.4971 44.7353H12.2971V41.9353Z" fill="black"/>
<path d="M41.897 44.7353H32.697C32.647 44.7353 32.547 44.7353 32.497 44.7853C32.447 44.8353 32.447 44.8853 32.447 44.9853V51.3853C32.447 51.4353 32.447 51.5353 32.497 51.5853C32.547 51.6353 32.597 51.6353 32.697 51.6353H41.897V54.3853H32.547C31.997 54.3853 31.547 54.2353 31.097 53.9853C30.647 53.7353 30.297 53.3853 30.047 52.9353C29.797 52.4853 29.647 51.9853 29.647 51.4853V41.9853H41.897V44.7353Z" fill="black"/>
<path d="M22.897 57.3353V60.0353C22.897 60.0853 22.897 60.1853 22.947 60.2353C22.997 60.2853 23.047 60.2853 23.147 60.2853H29.547C29.597 60.2853 29.697 60.2853 29.747 60.2353C29.797 60.1853 29.797 60.1353 29.797 60.0353V57.3353H32.547V60.1853C32.547 60.7353 32.397 61.1853 32.147 61.6353C31.897 62.0853 31.547 62.4353 31.097 62.6853C30.647 62.9353 30.147 63.0853 29.647 63.0853H20.147V57.3353H22.897Z" fill="black"/>
<path d="M60.197 65.7353L50.947 42.2353H57.047L61.547 53.0853C61.897 53.8853 62.997 53.8853 63.347 53.0853L66.897 44.8853C67.597 43.2853 69.197 42.2353 70.947 42.2353C72.697 42.2353 74.247 43.2353 74.997 44.8353L79.847 55.3853L84.847 42.2853H90.947L83.647 61.6353C82.697 64.1353 80.347 65.7853 77.697 65.7853L71.997 53.0353C71.647 52.2353 70.497 52.2353 70.097 53.0353L66.347 61.6853C65.297 64.1353 62.897 65.7353 60.197 65.7353Z" fill="black"/>
<path d="M95.097 64.9353C94.247 64.3853 93.547 63.7353 92.997 62.8353C92.447 61.9853 92.197 61.0353 92.197 59.9853V47.9353C92.197 46.8853 92.447 45.9853 92.997 45.0853C93.547 44.2353 94.197 43.5353 95.097 42.9853C95.947 42.4353 96.897 42.1853 97.947 42.1853H110.347C111.397 42.1853 112.347 42.4353 113.247 42.9853C114.097 43.5353 114.797 44.1853 115.297 45.0853C115.797 45.9353 116.047 46.8853 116.047 47.9353V60.0353C116.047 61.0853 115.797 61.9853 115.297 62.8853C114.797 63.7353 114.097 64.4353 113.247 64.9853C112.397 65.5353 111.447 65.7853 110.347 65.7853H97.897C96.897 65.7353 95.947 65.4853 95.097 64.9353ZM98.197 59.9853H110.047C110.097 59.9853 110.147 59.9353 110.197 59.8853C110.247 59.8353 110.297 59.7853 110.297 59.7353V48.2353C110.297 48.1853 110.247 48.1353 110.197 48.0853C110.147 48.0353 110.097 47.9853 110.047 47.9853H98.197C98.147 47.9853 98.097 48.0353 98.047 48.0853C97.997 48.1353 97.947 48.1853 97.947 48.2353V59.7353C97.947 59.7853 97.997 59.8353 98.047 59.8853C98.097 59.9353 98.147 59.9853 98.197 59.9853Z" fill="black"/>
<path d="M119.297 65.7353V47.9353C119.297 46.8853 119.547 45.9853 120.097 45.0853C120.647 44.2353 121.297 43.5353 122.197 42.9853C123.047 42.4353 123.997 42.1853 125.097 42.1853H138.097C138.097 45.3853 135.547 47.9353 132.347 47.9353H125.347C125.297 47.9353 125.247 47.9853 125.197 48.0353C125.147 48.0853 125.097 48.1353 125.097 48.1853V65.6853H119.297V65.7353Z" fill="black"/>
<path d="M140.597 65.7353V34.5353C143.797 34.5353 146.347 37.0853 146.347 40.2853V51.0353C148.697 51.0353 150.947 50.0353 152.547 48.3353L158.197 42.2353H162.347C163.347 42.2353 164.147 43.0353 164.147 44.0353L155.097 53.9853L162.947 62.6353C163.697 63.4853 164.147 64.5853 164.147 65.7353H158.197L150.047 56.8853C147.997 56.8853 146.347 58.5353 146.347 60.5853C146.347 63.4353 144.047 65.7353 141.197 65.7353H140.597Z" fill="black"/>
</g>
<defs>
<clipPath id="clip0_2_190">
<rect width="170.25" height="76.8" fill="white" transform="translate(0.897034 0.535278)"/>
</clipPath>
</defs>
</svg>
