<svg width="397" height="149" viewBox="0 0 397 149" fill="none" xmlns="http://www.w3.org/2000/svg">
<path d="M308.761 143.677C306.914 143.677 305.127 142.901 303.876 141.587C302.625 140.273 302.029 138.481 302.148 136.629L303.459 115.009C301.85 114.232 300.301 113.336 298.752 112.381L281.773 125.222C280.582 126.118 279.212 126.596 277.782 126.596C275.339 126.596 273.016 125.162 271.824 122.893C270.692 120.683 270.931 118.055 272.36 116.024L277.663 108.678H25.4785C14.3974 108.678 5.40143 98.9426 5.40143 86.9975V59.0459C5.40143 47.1008 14.3974 37.3655 25.4785 37.3655H120.978V36.5294C120.978 27.2122 128.008 19.6868 136.706 19.6868H158.511V37.4253H283.084L277.722 28.1678C276.531 26.0774 276.471 23.6287 277.663 21.5383C278.854 19.4479 281.058 18.1339 283.441 18.1339C285.11 18.1339 286.659 18.7909 287.91 19.9257L303.757 34.6182C306.438 33.3639 309.238 32.3486 312.157 31.6916L314.659 10.5488C315.076 7.1444 317.817 4.69566 321.272 4.69566C324.549 4.69566 327.23 6.96523 327.766 10.1307L331.638 31.393C333.425 31.7513 335.153 32.2292 336.821 32.8264L350.226 16.2824C351.477 14.7296 353.383 13.8337 355.349 13.8337C357.554 13.8337 359.639 14.9685 360.89 16.8199C362.141 18.6714 362.379 20.8813 361.486 22.9717L353.443 43.0395C354.754 44.2937 355.945 45.6077 357.077 47.0411L377.333 40.1727C378.048 39.9338 378.763 39.8143 379.478 39.8143C382.337 39.8143 384.839 41.6658 385.733 44.4729C386.627 47.28 385.673 50.1468 383.29 51.8789L365.775 64.5407C366.192 66.2727 366.49 68.0645 366.728 69.8563L387.401 74.8732C390.618 75.6496 392.763 78.6359 392.465 81.9208C392.167 85.2057 389.546 87.7739 386.269 87.9531L364.762 89.2671C364.167 90.9394 363.511 92.6117 362.737 94.2243L377.512 109.574C379.418 111.545 379.895 114.292 378.882 116.741C377.809 119.249 375.426 120.862 372.805 120.862C371.673 120.862 370.601 120.563 369.588 120.026L350.702 109.574C349.332 110.709 347.843 111.724 346.353 112.68L350.643 133.583C351.06 135.554 350.583 137.585 349.332 139.138C348.081 140.691 346.115 141.587 344.09 141.587C341.647 141.587 339.502 140.273 338.311 138.123L327.945 119.13C326.217 119.309 324.549 119.428 322.821 119.428C322.761 119.428 322.642 119.428 322.583 119.428L314.897 139.377C313.944 142.005 311.502 143.677 308.761 143.677Z" fill="#E8DE28"/>
<path d="M321.332 9.11535C322.285 9.11535 323.238 9.7126 323.476 10.9071L327.945 35.2752C331.579 35.753 335.094 36.7086 338.37 38.142L353.8 19.0895C354.277 18.4923 354.873 18.2534 355.468 18.2534C356.839 18.2534 358.149 19.627 357.494 21.2396L348.26 44.234C351.06 46.5633 353.503 49.2509 355.528 52.2372L378.763 44.4132C379.001 44.3534 379.239 44.2937 379.478 44.2937C381.384 44.2937 382.516 46.9216 380.669 48.2356L360.592 62.6892C361.664 66.0936 362.32 69.6771 362.439 73.3801L386.269 79.1735C388.712 79.7707 388.354 83.2945 385.912 83.4737L361.247 84.9668C360.354 88.5504 358.924 91.895 357.137 95.0007L374.175 112.68C375.605 114.173 374.354 116.382 372.626 116.382C372.269 116.382 371.911 116.323 371.554 116.084L349.928 104.139C347.307 106.588 344.328 108.738 341.111 110.41L346.056 134.479C346.353 136.032 345.162 137.107 343.911 137.107C343.196 137.107 342.481 136.749 342.064 135.972L330.149 114.292C327.706 114.77 325.204 115.009 322.642 115.009C321.51 115.009 320.438 114.949 319.366 114.889L310.727 137.824C310.37 138.78 309.536 139.257 308.702 139.257C307.57 139.257 306.438 138.421 306.497 136.928L307.987 112.202C304.591 110.888 301.433 109.096 298.514 106.886L278.973 121.698C278.556 121.997 278.08 122.176 277.663 122.176C276.054 122.176 274.743 120.324 275.875 118.712L286.301 104.258H274.386H255.262H142.783H136.706H25.4784C16.84 104.258 9.86959 96.5536 9.86959 87.0572V59.0459C9.86959 49.5496 16.84 41.845 25.4784 41.845H125.447V36.5294C125.447 29.6609 130.51 24.1662 136.706 24.1662H154.043V41.9047H255.262H258.777H290.888L281.654 25.958C280.701 24.3454 282.071 22.6731 283.561 22.6731C284.037 22.6731 284.573 22.8522 284.99 23.2703L303.101 40.1129C307.093 37.8434 311.561 36.2308 316.268 35.5141L319.127 11.146C319.306 9.77233 320.319 9.11535 321.332 9.11535ZM321.332 0.156509C315.731 0.156509 310.965 4.39703 310.31 9.9515L308.165 28.1081C307.033 28.4664 305.901 28.8845 304.77 29.3026L291.067 16.581C288.982 14.6698 286.301 13.5948 283.561 13.5948C279.569 13.5948 275.875 15.7449 273.909 19.209C271.943 22.6731 271.943 26.8538 273.969 30.3179L275.399 32.8264H258.837H255.322H162.979V24.1662V15.2074H154.043H136.706C126.757 15.2074 118.476 22.8522 116.808 32.9459H25.4784C11.9547 32.8861 0.933228 44.6521 0.933228 59.0459V86.9975C0.933228 101.391 11.9547 113.157 25.4784 113.157H136.706H142.783H255.262H268.965L268.786 113.456C266.343 116.86 265.986 121.28 267.892 124.983C269.799 128.686 273.671 131.075 277.782 131.075C280.224 131.075 282.488 130.299 284.454 128.805L298.752 117.995L297.62 136.331C297.442 139.437 298.455 142.363 300.599 144.633C302.684 146.843 305.663 148.157 308.761 148.157C313.408 148.157 317.459 145.349 319.127 140.93L325.442 124.087L334.26 140.213C336.226 143.797 339.919 146.006 343.97 146.006C347.366 146.006 350.524 144.513 352.668 141.885C354.754 139.317 355.588 135.913 354.873 132.628L351.239 115.009L367.324 123.908C368.992 124.804 370.839 125.341 372.686 125.341C377.154 125.341 381.146 122.654 382.873 118.533C384.601 114.412 383.707 109.693 380.609 106.468L368.158 93.5673L386.448 92.4923C391.988 92.1339 396.337 87.8934 396.874 82.3986C397.35 76.8442 393.835 71.8869 388.414 70.573L371.018 66.3325L385.912 55.5819C389.844 52.7747 391.512 47.7578 390.022 43.1589C388.533 38.5003 384.303 35.3946 379.478 35.3946C378.286 35.3946 377.035 35.5738 375.903 35.9919L358.924 41.7255L365.775 24.644C367.145 21.1799 366.788 17.2978 364.703 14.3115C362.618 11.2057 359.162 9.35425 355.409 9.35425C352.073 9.35425 348.975 10.8474 346.83 13.4753L335.511 27.4511L332.234 9.35425C331.281 3.97895 326.693 0.156509 321.332 0.156509Z" fill="black"/>
<path d="M29.6488 93.2687C28.3977 93.2687 27.3253 92.9701 26.3125 92.3131C26.1338 92.1936 25.8955 92.0742 25.7168 91.9547H56.5174C58.126 91.9547 59.6749 91.2978 60.8665 90.163C61.9984 89.0282 62.6537 87.4753 62.6537 85.803V79.7707C62.6537 78.1581 61.9984 76.6053 60.8665 75.4705C59.6749 74.276 58.126 73.6787 56.5174 73.6787H29.6488C28.3977 73.6787 27.3253 73.3801 26.3125 72.7231C25.1806 72.0661 24.287 71.1702 23.6316 70.0354C22.9763 69.0201 22.6784 67.8853 22.6784 66.6908V59.7029C22.6784 58.4487 22.9763 57.3139 23.572 56.2986C24.2274 55.1638 25.121 54.3276 26.253 53.6109C27.2657 53.0137 28.3977 52.6553 29.5892 52.6553H56.8749C58.1856 52.6553 59.3175 52.9539 60.3303 53.5512C60.4494 53.6109 60.509 53.6706 60.6282 53.7304L29.9466 53.9693C28.3381 53.9693 26.7891 54.6262 25.6572 55.761C24.5253 56.8958 23.8699 58.4487 23.8699 60.121V66.1533C23.8699 67.8256 24.5253 69.3187 25.6572 70.5133C26.7891 71.648 28.3381 72.305 29.9466 72.305H56.8153C58.126 72.305 59.2579 72.6036 60.2707 73.2009C61.4026 73.9176 62.2963 74.7538 62.9516 75.8886C63.5474 76.9039 63.8452 77.979 63.8452 79.2929V86.2808C63.8452 87.535 63.5474 88.6101 62.892 89.6254C62.1771 90.7602 61.3431 91.6561 60.2111 92.3131C59.1983 92.9103 58.0664 93.209 56.7557 93.209H29.6488V93.2687Z" fill="#0000FF"/>
<path d="M56.994 47.6384H29.6487C27.504 47.6384 25.4784 48.1759 23.6912 49.3107C21.8443 50.4455 20.4145 51.8789 19.2826 53.6706C18.1506 55.4624 17.6144 57.4931 17.6144 59.7029V66.6908C17.6144 68.8409 18.1506 70.8716 19.2826 72.6634C20.4145 74.5149 21.8443 75.9483 23.6912 77.0831C25.538 78.2179 27.504 78.7554 29.6487 78.7554H56.5174C56.8153 78.7554 57.0536 78.8748 57.2323 79.054C57.411 79.2332 57.5302 79.5318 57.5302 79.7707V85.803C57.5302 86.1016 57.411 86.3405 57.2323 86.5197C57.0536 86.6989 56.7557 86.8183 56.5174 86.8183H17.6144C17.6144 86.8183 18.1506 90.4019 19.2826 92.1936C20.4145 94.0451 21.8443 95.4785 23.6912 96.6133C25.538 97.7481 27.504 98.2856 29.6487 98.2856H56.9344C59.1983 98.2856 61.2239 97.7481 63.0707 96.6133C64.858 95.4785 66.3474 94.0451 67.4198 92.1936C68.5517 90.3421 69.0879 88.3712 69.0879 86.2211V79.2332C69.0879 77.0233 68.5517 74.9927 67.4198 73.2009C66.2878 71.4091 64.858 69.916 63.0707 68.8409C61.2835 67.7061 59.2579 67.1686 56.9344 67.1686H30.0658C29.7679 67.1686 29.5296 67.0492 29.3509 66.87C29.1721 66.6908 29.053 66.3922 29.053 66.1533V60.121C29.053 59.8224 29.1721 59.5835 29.3509 59.4043C29.5296 59.2251 29.8275 59.1057 30.0658 59.1057L68.8496 58.8668C68.8496 56.6569 68.5517 55.5221 67.4198 53.7304C66.2878 51.9386 64.858 50.4455 63.0707 49.3704C61.2835 48.1759 59.2579 47.6384 56.994 47.6384Z" fill="black"/>
<path d="M88.9862 93.2687C87.6756 93.2687 86.6032 92.9701 85.5308 92.3131C84.3989 91.6561 83.5648 90.7602 82.9095 89.6852C82.3137 88.6101 82.0159 87.535 82.0159 86.2808V72.305H121.991V60.121C121.991 58.5084 121.336 56.9555 120.204 55.8208C119.012 54.6262 117.523 54.029 115.855 54.029H88.3905C86.9607 54.029 85.5904 53.5512 84.518 52.715H116.272C117.583 52.715 118.715 53.0137 119.787 53.6109C120.859 54.2679 121.693 55.1041 122.349 56.1791C122.944 57.2542 123.242 58.389 123.242 59.7029V85.9225C123.242 87.4753 122.766 88.9087 121.932 90.1032V72.4245H83.267V85.803C83.267 87.4753 83.9223 88.9685 85.0542 90.163C86.1862 91.2978 87.7351 91.9547 89.3437 91.9547H120.085C118.893 92.7909 117.463 93.2687 115.914 93.2687H88.9862Z" fill="#0000FF"/>
<path d="M116.272 47.6384H76.8923C76.8923 53.9693 82.0159 59.1057 88.3309 59.1057H115.795C116.093 59.1057 116.331 59.2251 116.51 59.4043C116.689 59.5835 116.808 59.8821 116.808 60.121V67.2283H76.8328V86.2808C76.8328 88.4309 77.3689 90.4616 78.4413 92.2534C79.5137 94.1049 80.9435 95.5383 82.7903 96.6731C84.6372 97.8078 86.6628 98.3454 88.8671 98.3454H115.914C122.766 98.3454 128.306 92.7909 128.306 85.9225V59.7029C128.306 57.4931 127.77 55.4624 126.698 53.6109C125.625 51.7594 124.195 50.326 122.349 49.2509C120.561 48.1759 118.536 47.6384 116.272 47.6384ZM89.4032 86.8781C89.1054 86.8781 88.8671 86.7586 88.6883 86.5794C88.5096 86.4003 88.3905 86.1016 88.3905 85.8627V77.5609H116.927V86.9378H89.4032V86.8781Z" fill="black"/>
<path d="M146.775 93.2687C145.524 93.2687 144.451 92.9701 143.438 92.3131C142.306 91.6561 141.413 90.7602 140.758 89.6254C140.102 88.6101 139.804 87.4753 139.804 86.2808V42.4422C139.804 40.9491 140.34 39.5157 141.175 38.4406V85.8627C141.175 87.535 141.83 89.0282 142.962 90.2227C144.094 91.3575 145.643 92.0145 147.251 92.0145H151.898V93.3284H146.775V93.2687Z" fill="#0000FF"/>
<path d="M146.238 30.9152C139.864 30.9152 134.74 36.1113 134.74 42.4422V86.2808C134.74 88.4309 135.277 90.4616 136.408 92.2534C137.54 94.1049 138.97 95.5383 140.817 96.6731C142.664 97.8079 144.63 98.3454 146.775 98.3454H156.962V86.8781H147.251C146.953 86.8781 146.715 86.7586 146.536 86.5794C146.358 86.4003 146.238 86.1016 146.238 85.8627V30.9152Z" fill="black"/>
<path d="M174.656 93.2687C173.345 93.2687 172.273 92.9701 171.201 92.3131C170.069 91.6561 169.235 90.7602 168.579 89.6852C167.984 88.6101 167.686 87.535 167.686 86.2808V77.5609C167.686 76.2469 168.162 74.9927 168.996 74.0968V85.8627C168.996 87.535 169.652 89.0282 170.784 90.2227C171.916 91.3575 173.465 92.0145 175.073 92.0145H207.661V72.4245H171.618C172.035 72.305 172.511 72.2453 172.928 72.2453H207.661V60.0613C207.661 58.4487 207.006 56.8958 205.874 55.761C204.682 54.5665 203.193 53.9693 201.525 53.9693H170.188C171.26 53.1331 172.571 52.6553 174.06 52.6553H202.001C203.312 52.6553 204.444 52.9539 205.516 53.5512C206.589 54.2082 207.423 55.0443 208.078 56.1194C208.674 57.1944 208.972 58.3292 208.972 59.6432V93.209H174.656V93.2687Z" fill="#0000FF"/>
<path d="M202.001 47.6384H174.06C167.745 47.6384 162.622 52.7747 162.622 59.1057H201.525C201.823 59.1057 202.061 59.2251 202.24 59.4043C202.418 59.5835 202.538 59.8821 202.538 60.121V67.2283H172.869C167.15 67.2283 162.562 71.8869 162.562 77.5609V86.2808C162.562 88.4309 163.098 90.4616 164.171 92.2534C165.243 94.1049 166.673 95.5383 168.52 96.6731C170.367 97.8078 172.392 98.3454 174.597 98.3454H213.976V59.7029C213.976 57.4931 213.44 55.4624 212.368 53.6109C211.295 51.7594 209.865 50.326 208.019 49.2509C206.231 48.1759 204.206 47.6384 202.001 47.6384ZM175.133 86.8781C174.835 86.8781 174.597 86.7586 174.418 86.5794C174.239 86.4003 174.12 86.1016 174.12 85.8627V77.5609H202.657V86.9378H175.133V86.8781Z" fill="black"/>
<path d="M266.581 93.2687V60.121C266.581 58.5084 265.926 56.9555 264.794 55.8208C263.603 54.6262 262.113 54.029 260.445 54.029H233.994C232.385 54.029 230.836 54.686 229.704 55.8208C228.572 57.0153 227.917 58.5084 227.917 60.1807V93.3284H226.606V52.715H260.922C262.232 52.715 263.305 53.0137 264.377 53.6706C265.509 54.3276 266.343 55.2235 266.999 56.2986C267.594 57.3139 267.892 58.4487 267.892 59.7029V93.2687H266.581Z" fill="#0000FF"/>
<path d="M260.862 47.6384H221.483V98.3454H232.921V60.121C232.921 59.8224 233.04 59.5835 233.219 59.4043C233.398 59.2251 233.696 59.1057 233.934 59.1057H260.386C260.684 59.1057 260.922 59.2251 261.101 59.4043C261.279 59.5835 261.398 59.8821 261.398 60.121V98.3454H272.837V59.7029C272.837 57.4931 272.301 55.4624 271.228 53.6706C270.156 51.8789 268.726 50.3857 266.879 49.3107C265.092 48.1759 263.067 47.6384 260.862 47.6384Z" fill="black"/>
<path d="M296.667 56.7166H316.923V72.4842C316.923 73.3801 316.685 74.1565 316.268 74.9329C315.851 75.6497 315.255 76.2469 314.54 76.665C313.825 77.0831 312.991 77.322 312.157 77.322H296.727V72.7231H311.919C312.038 72.7231 312.157 72.6634 312.217 72.6037C312.276 72.5439 312.336 72.4245 312.336 72.305V61.6739C312.336 61.5544 312.276 61.435 312.217 61.3752C312.157 61.3155 312.038 61.2558 311.919 61.2558H296.667V56.7166Z" fill="black"/>
<path d="M345.698 61.3155H330.447C330.328 61.3155 330.208 61.3752 330.149 61.435C330.089 61.4947 330.03 61.6141 330.03 61.7336V72.3647C330.03 72.4842 330.089 72.6037 330.149 72.6634C330.208 72.7231 330.328 72.7828 330.447 72.7828H345.698V77.3817H330.268C329.374 77.3817 328.6 77.1428 327.885 76.7247C327.17 76.3066 326.574 75.7094 326.157 74.9927C325.74 74.276 325.502 73.4398 325.502 72.5439V56.7166H345.758V61.3155H345.698Z" fill="black"/>
<path d="M307.033 84.6085V80.6666H311.442V84.4293C311.442 84.5488 311.502 84.6085 311.561 84.7279C311.621 84.7877 311.74 84.8474 311.859 84.8474H333.068C333.068 87.2961 331.102 89.3268 328.6 89.3268H311.68C310.846 89.3268 310.072 89.0879 309.357 88.6698C308.642 88.2517 308.106 87.6545 307.629 86.9378C307.272 86.2211 307.033 85.4446 307.033 84.6085Z" fill="black"/>
</svg>
