<svg width="226" height="70" viewBox="0 0 226 70" fill="none" xmlns="http://www.w3.org/2000/svg">
<g clip-path="url(#clip0_2_223)">
<path d="M24.525 67.175C18.575 67.025 13.025 64.525 8.82499 60.075C4.72499 55.675 2.42499 49.875 2.42499 43.675C2.42499 32.825 9.57499 23.425 19.625 20.875L22.325 4.075C22.475 3.125 23.325 2.425 24.275 2.375C25.225 2.375 26.075 3.075 26.225 4.025L28.975 19.175H221.425C222.525 19.175 223.425 20.075 223.425 21.175V65.175C223.425 66.275 222.525 67.175 221.425 67.175H24.825C24.775 67.175 24.675 67.175 24.525 67.175C24.575 67.175 24.575 67.175 24.525 67.175Z" fill="#277AFF"/>
<path d="M24.275 4.375L27.325 21.175H221.425V65.175H24.575C13.425 64.925 4.42499 55.375 4.42499 43.675C4.42499 33.125 11.725 24.325 21.375 22.525L24.275 4.375ZM24.275 0.375C22.275 0.375 20.625 1.825 20.325 3.725L17.825 19.275C7.62499 22.525 0.424988 32.325 0.424988 43.675C0.424988 50.375 2.92499 56.675 7.42499 61.425C11.975 66.225 18.025 68.975 24.525 69.125C24.575 69.125 24.575 69.125 24.625 69.125C24.725 69.125 24.875 69.125 24.975 69.125H221.425C223.625 69.125 225.425 67.325 225.425 65.125V21.125C225.425 18.925 223.625 17.125 221.425 17.125H30.675L28.225 3.625C27.875 1.775 26.225 0.375 24.275 0.375Z" fill="black"/>
<path d="M47.825 54.225C46.975 53.675 46.275 53.025 45.725 52.125C45.175 51.275 44.925 50.325 44.925 49.275V37.275C44.925 36.225 45.175 35.325 45.725 34.425C46.275 33.575 46.925 32.875 47.825 32.325C48.675 31.775 49.625 31.525 50.675 31.525H68.725C68.725 34.675 66.175 37.275 62.975 37.275H50.975C50.925 37.275 50.875 37.325 50.825 37.375C50.775 37.425 50.725 37.475 50.725 37.525V49.025C50.725 49.075 50.775 49.125 50.825 49.175C50.875 49.225 50.925 49.275 50.975 49.275H63.025C66.175 49.275 68.775 51.825 68.775 55.025H50.675C49.625 55.025 48.675 54.775 47.825 54.225Z" fill="black"/>
<path d="M75.575 54.225C74.725 53.675 74.025 53.025 73.475 52.125C72.925 51.275 72.675 50.325 72.675 49.275V37.275C72.675 36.225 72.925 35.325 73.475 34.425C74.025 33.575 74.675 32.875 75.575 32.325C76.425 31.775 77.375 31.525 78.425 31.525H90.825C91.875 31.525 92.825 31.775 93.675 32.325C94.525 32.875 95.225 33.525 95.725 34.425C96.225 35.275 96.475 36.225 96.475 37.275V49.325C96.475 50.375 96.225 51.275 95.725 52.175C95.225 53.025 94.525 53.725 93.675 54.275C92.825 54.825 91.875 55.075 90.825 55.075H78.425C77.425 55.025 76.475 54.775 75.575 54.225Z" fill="black"/>
<path d="M99.775 55.025V39.7249C99.775 35.2249 103.425 31.575 107.925 31.575H117.875C118.925 31.575 119.875 31.825 120.725 32.375C121.575 32.925 122.275 33.5749 122.775 34.4749C123.275 35.3249 123.525 36.275 123.525 37.325V55.075H117.775V37.575C117.775 37.525 117.725 37.4749 117.675 37.4249C117.625 37.3749 117.575 37.325 117.525 37.325H105.725C105.675 37.325 105.625 37.3749 105.575 37.4249C105.525 37.4749 105.475 37.525 105.475 37.575V55.075H99.775V55.025Z" fill="black"/>
<path d="M127.925 55.175L127.875 24.475H133.625C133.625 28.375 136.775 31.575 140.725 31.575H142.575V37.325H133.625V49.075C133.625 49.125 133.675 49.175 133.725 49.225C133.775 49.275 133.825 49.325 133.875 49.325H136.825C139.975 49.325 142.575 51.875 142.575 55.075L127.925 55.175Z" fill="black"/>
<path d="M152.625 55.025C151.575 55.025 150.625 54.775 149.775 54.225C148.925 53.675 148.225 53.025 147.725 52.125C147.225 51.275 146.975 50.325 146.975 49.275V40.375H165.025V37.525C165.025 37.475 164.975 37.425 164.925 37.375C164.875 37.325 164.825 37.275 164.775 37.275H152.725C149.575 37.275 146.975 34.725 146.975 31.525H165.075C166.125 31.525 167.075 31.775 167.925 32.325C168.775 32.875 169.475 33.525 169.975 34.425C170.475 35.275 170.725 36.225 170.725 37.275V48.525C170.725 52.125 167.825 55.025 164.225 55.025H152.625ZM152.925 49.275H164.975V45.525H152.675V49.025C152.675 49.075 152.725 49.125 152.775 49.175C152.825 49.275 152.875 49.275 152.925 49.275Z" fill="black"/>
<path d="M176.575 54.225C175.725 53.675 175.025 53.025 174.475 52.125C173.925 51.275 173.675 50.325 173.675 49.275V37.275C173.675 36.225 173.925 35.325 174.475 34.425C175.025 33.575 175.675 32.875 176.575 32.325C177.425 31.775 178.375 31.525 179.425 31.525H197.475V37.275H179.725C179.675 37.275 179.625 37.325 179.575 37.375C179.525 37.425 179.475 37.475 179.475 37.525V49.025C179.475 49.075 179.525 49.125 179.575 49.175C179.625 49.225 179.675 49.275 179.725 49.275H197.525V55.025H179.425C178.375 55.025 177.475 54.775 176.575 54.225Z" fill="black"/>
<path d="M203.725 54.225C202.875 53.675 202.175 53.025 201.625 52.125C201.075 51.275 200.825 50.325 200.825 49.275V24.475H206.575C206.575 28.375 209.725 31.575 213.675 31.575H215.525V37.325C210.575 37.325 206.575 41.325 206.575 46.275V49.075C206.575 49.125 206.625 49.175 206.675 49.225C206.725 49.275 206.775 49.325 206.825 49.325H209.775C212.925 49.325 215.525 51.875 215.525 55.075H206.575C205.525 55.025 204.575 54.775 203.725 54.225Z" fill="black"/>
<path d="M12.625 45.925V35.025H21.125C21.625 35.025 22.025 35.125 22.425 35.375C22.825 35.625 23.125 35.925 23.375 36.325C23.625 36.725 23.725 37.125 23.725 37.625V45.925H21.275V37.725C21.275 37.675 21.275 37.625 21.225 37.575C21.175 37.525 21.125 37.525 21.075 37.525H15.325C15.275 37.525 15.225 37.525 15.175 37.575C15.125 37.625 15.125 37.675 15.125 37.725V45.925H12.625Z" fill="black"/>
<path d="M36.725 45.925V37.725C36.725 37.675 36.725 37.625 36.675 37.575C36.625 37.525 36.575 37.525 36.525 37.525H30.825C30.775 37.525 30.725 37.525 30.675 37.575C30.625 37.625 30.625 37.675 30.625 37.725V45.925H28.175V37.625C28.175 37.125 28.275 36.725 28.525 36.325C28.775 35.925 29.075 35.625 29.475 35.375C29.875 35.125 30.325 35.025 30.775 35.025H39.275V45.925H36.725Z" fill="black"/>
<path d="M18.325 49.925L32.325 50.0251C32.325 51.3751 31.275 52.425 29.925 52.425H20.825C20.375 52.425 19.975 52.3251 19.575 52.0751C19.175 51.8251 18.875 51.525 18.675 51.175C18.425 50.775 18.325 50.375 18.325 49.925Z" fill="black"/>
</g>
<defs>
<clipPath id="clip0_2_223">
<rect width="225" height="68.8" fill="white" transform="translate(0.424988 0.375)"/>
</clipPath>
</defs>
</svg>
