<svg width="316" height="53" viewBox="0 0 316 53" fill="none" xmlns="http://www.w3.org/2000/svg">
<g clip-path="url(#clip0_2_202)">
<path d="M26.725 50.8853C13.325 50.8853 2.42499 40.0353 2.42499 26.6353C2.42499 13.2353 13.325 2.33527 26.725 2.33527C27.125 2.33527 27.575 2.33527 28.025 2.38527H311.575C312.675 2.38527 313.575 3.28527 313.575 4.38527V48.8853C313.575 49.9853 312.675 50.8853 311.575 50.8853H28.025C27.525 50.8853 27.125 50.8853 26.725 50.8853Z" fill="#3FFF24"/>
<path d="M26.725 4.33527C27.125 4.33527 27.575 4.33527 27.975 4.38527H311.575V48.8853H27.975C27.575 48.8853 27.125 48.9353 26.725 48.9353C14.425 48.8853 4.42499 38.9353 4.42499 26.6353C4.42499 14.3353 14.425 4.33527 26.725 4.33527ZM26.725 0.335266C12.225 0.335266 0.424988 12.1353 0.424988 26.6353C0.424988 41.1353 12.225 52.9353 26.725 52.9353C27.175 52.9353 27.625 52.9353 28.075 52.8853H311.575C313.775 52.8853 315.575 51.0853 315.575 48.8853V4.38527C315.575 2.18527 313.775 0.385266 311.575 0.385266H28.075C27.575 0.335266 27.125 0.335266 26.725 0.335266Z" fill="black"/>
<path d="M57.525 38.2353C56.675 37.6853 55.975 36.9853 55.425 36.1353C54.875 35.2853 54.625 34.3353 54.625 33.2853C54.625 33.2853 54.525 15.7853 54.525 15.5853L72.775 15.3853C73.825 15.3853 74.775 15.6353 75.675 16.1853C76.525 16.7353 77.225 17.4353 77.775 18.2853C78.275 19.1353 78.525 20.0853 78.525 21.1353V30.1353H60.425V32.9853C60.425 33.0353 60.475 33.0853 60.525 33.1353C60.575 33.1853 60.625 33.2353 60.675 33.2353H78.575V39.0353H60.375C59.375 39.0353 58.425 38.7853 57.525 38.2353ZM60.425 24.9853H72.775V21.4353C72.775 21.3853 72.725 21.3353 72.675 21.2853C72.625 21.2353 72.575 21.1853 72.525 21.1853H60.625C60.575 21.1853 60.525 21.2353 60.475 21.2853C60.425 21.3353 60.375 21.3853 60.375 21.4353V24.9853H60.425Z" fill="black"/>
<path d="M81.825 39.0352V37.2852L90.225 27.0352L81.825 17.1852V15.4352H87.9249L93.975 22.5852L99.975 15.4352H106.075V17.1852L97.6749 27.0352L106.075 37.2852V39.0352H100.025L93.975 31.5852L87.9249 39.0352H81.825Z" fill="black"/>
<path d="M110.275 45.1352V15.4352H128.475C129.525 15.4352 130.475 15.6852 131.375 16.2352C132.225 16.7852 132.925 17.4852 133.475 18.3352C133.975 19.1852 134.225 20.1352 134.225 21.1852V33.3352C134.225 34.3852 133.975 35.3352 133.475 36.1852C132.975 37.0352 132.275 37.7352 131.375 38.2852C130.525 38.8352 129.525 39.0852 128.475 39.0852H116.075V45.1852H110.275V45.1352ZM116.325 33.2352H128.225C128.275 33.2352 128.325 33.1852 128.375 33.1352C128.425 33.0852 128.475 33.0352 128.475 32.9852V21.4352C128.475 21.3852 128.425 21.3352 128.375 21.2852C128.325 21.2352 128.275 21.1852 128.225 21.1852H116.325C116.275 21.1852 116.225 21.2352 116.175 21.2852C116.125 21.3352 116.075 21.3852 116.075 21.4352V32.9852C116.075 33.0352 116.125 33.0852 116.175 33.1352C116.225 33.2352 116.275 33.2352 116.325 33.2352Z" fill="black"/>
<path d="M140.075 38.2352C139.225 37.6852 138.525 36.9852 137.975 36.1352C137.425 35.2852 137.175 34.3352 137.175 33.2852V21.1852C137.175 20.1352 137.425 19.1852 137.975 18.3352C138.525 17.4852 139.225 16.7852 140.075 16.2352C140.925 15.6852 141.875 15.4352 142.925 15.4352H155.375C156.425 15.4352 157.375 15.6852 158.275 16.2352C159.125 16.7852 159.825 17.4852 160.375 18.3352C160.875 19.1852 161.125 20.1352 161.125 21.1852V21.8352C161.125 26.4352 157.375 30.1852 152.775 30.1852H142.975V33.0352C142.975 33.0852 143.025 33.1352 143.075 33.1852C143.125 33.2352 143.175 33.2852 143.225 33.2852H161.125V39.0852H142.925C141.925 39.0352 140.975 38.7852 140.075 38.2352ZM142.975 24.9852H151.975C153.825 24.9852 155.325 23.4852 155.325 21.6352V21.4352C155.325 21.3852 155.275 21.3352 155.225 21.2852C155.175 21.2352 155.125 21.1852 155.075 21.1852H143.175C143.125 21.1852 143.075 21.2352 143.025 21.2852C142.975 21.3352 142.925 21.3852 142.925 21.4352V24.9852H142.975Z" fill="black"/>
<path d="M169.325 39.0352C167.025 39.0352 165.125 37.1352 165.125 34.8352V21.1852C165.125 20.1352 165.375 19.1852 165.925 18.3352C166.475 17.4852 167.175 16.7852 168.025 16.2352C168.875 15.6852 169.875 15.4352 170.925 15.4352H183.975V17.2852C183.975 19.4352 182.225 21.1852 180.075 21.1852H171.175C171.125 21.1852 171.075 21.2352 171.025 21.2852C170.975 21.3352 170.925 21.3852 170.925 21.4352V39.0352H169.325Z" fill="black"/>
<path d="M187.125 13.5352V10.5852C187.125 8.98524 188.425 7.68524 190.025 7.68524C191.625 7.68524 192.925 8.98524 192.925 10.5852V13.5352H187.125ZM187.125 39.0352V15.4352H192.925V39.0352H187.125Z" fill="black"/>
<path d="M199.575 38.2352C198.725 37.6852 198.025 36.9852 197.475 36.1352C196.925 35.2852 196.675 34.3352 196.675 33.2852V21.1852C196.675 20.1352 196.925 19.1852 197.475 18.3352C198.025 17.4852 198.725 16.7852 199.575 16.2352C200.425 15.6852 201.375 15.4352 202.425 15.4352H214.875C215.925 15.4352 216.875 15.6852 217.775 16.2352C218.625 16.7852 219.325 17.4852 219.875 18.3352C220.375 19.1852 220.625 20.1352 220.625 21.1852V30.1852H202.475V33.0352C202.475 33.0852 202.525 33.1352 202.575 33.1852C202.625 33.2352 202.675 33.2852 202.725 33.2852H220.625V39.0852H202.425C201.375 39.0352 200.425 38.7852 199.575 38.2352ZM202.475 24.9852H214.825V21.4352C214.825 21.3852 214.775 21.3352 214.725 21.2852C214.675 21.2352 214.625 21.1852 214.575 21.1852H202.675C202.625 21.1852 202.575 21.2352 202.525 21.2852C202.475 21.3352 202.425 21.3852 202.425 21.4352V24.9852H202.475Z" fill="black"/>
<path d="M224.975 39.0352V15.4352H243.175C244.225 15.4352 245.175 15.6852 246.075 16.2352C246.925 16.7852 247.625 17.4852 248.175 18.3352C248.675 19.1852 248.925 20.1352 248.925 21.1852V39.0352H243.125V21.4352C243.125 21.3852 243.075 21.3352 243.025 21.2852C242.975 21.2352 242.925 21.1852 242.875 21.1852H230.975C230.925 21.1852 230.875 21.2352 230.825 21.2852C230.775 21.3352 230.725 21.3852 230.725 21.4352V39.0352H224.975Z" fill="black"/>
<path d="M255.075 38.2352C254.225 37.6852 253.525 36.9852 252.975 36.1352C252.425 35.2852 252.175 34.3352 252.175 33.2852V21.1852C252.175 20.1352 252.425 19.1852 252.975 18.3352C253.525 17.4852 254.225 16.7852 255.075 16.2352C255.925 15.6852 256.875 15.4352 257.925 15.4352H276.075V16.7352C276.075 19.2352 274.075 21.2352 271.575 21.2352H258.225C258.175 21.2352 258.125 21.2852 258.075 21.3352C258.025 21.3852 257.975 21.4352 257.975 21.4852V33.0352C257.975 33.0852 258.025 33.1352 258.075 33.1852C258.125 33.2352 258.175 33.2852 258.225 33.2852H272.325C274.425 33.2852 276.175 34.9852 276.175 37.1352V39.0852H257.925C256.925 39.0352 255.975 38.7852 255.075 38.2352Z" fill="black"/>
<path d="M282.375 38.2352C281.525 37.6852 280.825 36.9852 280.275 36.1352C279.725 35.2852 279.475 34.3352 279.475 33.2852V21.1852C279.475 20.1352 279.725 19.1852 280.275 18.3352C280.825 17.4852 281.525 16.7852 282.375 16.2352C283.225 15.6852 284.175 15.4352 285.225 15.4352H297.675C298.725 15.4352 299.675 15.6852 300.575 16.2352C301.425 16.7852 302.125 17.4852 302.675 18.3352C303.175 19.1852 303.425 20.1352 303.425 21.1852V25.0852C303.425 27.8852 301.175 30.1852 298.325 30.1852H285.225V33.0352C285.225 33.0852 285.275 33.1352 285.325 33.1852C285.375 33.2352 285.425 33.2852 285.475 33.2852H298.875C301.375 33.2852 303.425 35.3352 303.425 37.8352V39.0852H285.225C284.175 39.0352 283.225 38.7852 282.375 38.2352ZM287.725 24.9852H297.625V21.4352C297.625 21.3852 297.575 21.3352 297.525 21.2852C297.475 21.2352 297.425 21.1852 297.375 21.1852H285.475C285.425 21.1852 285.375 21.2352 285.325 21.2852C285.275 21.3352 285.225 21.3852 285.225 21.4352V22.4852C285.225 23.8852 286.375 24.9852 287.725 24.9852Z" fill="black"/>
<path d="M13.025 17.5353H24.325V26.3353C24.325 26.8353 24.225 27.2853 23.975 27.6853C23.725 28.0853 23.425 28.4353 23.025 28.6353C22.625 28.8853 22.175 28.9853 21.675 28.9853H13.025V26.4353H21.525C21.575 26.4353 21.625 26.4353 21.675 26.3853C21.725 26.3353 21.725 26.2853 21.725 26.2353V20.3353C21.725 20.2853 21.725 20.2353 21.675 20.1853C21.625 20.1353 21.575 20.1353 21.525 20.1353H13.025V17.5353Z" fill="black"/>
<path d="M40.375 20.1353H31.875C31.825 20.1353 31.775 20.1353 31.725 20.1853C31.675 20.2353 31.675 20.2853 31.675 20.3353V26.2353C31.675 26.2853 31.675 26.3353 31.725 26.3853C31.775 26.4353 31.825 26.4353 31.875 26.4353H40.375V28.9853H31.775C31.275 28.9853 30.825 28.8853 30.425 28.6353C30.025 28.3853 29.675 28.0853 29.475 27.6853C29.225 27.2853 29.125 26.8353 29.125 26.3353V17.5853H40.425V20.1353H40.375Z" fill="black"/>
<path d="M18.825 33.0853V30.8853H21.275V32.9853C21.275 33.0353 21.275 33.0853 21.325 33.1353C21.375 33.1853 21.425 33.1853 21.475 33.1853H33.325C33.325 34.5353 32.225 35.6853 30.825 35.6853H21.425C20.975 35.6853 20.525 35.5853 20.125 35.3353C19.725 35.0853 19.425 34.7853 19.175 34.3853C18.925 33.9853 18.825 33.5353 18.825 33.0853Z" fill="black"/>
</g>
<defs>
<clipPath id="clip0_2_202">
<rect width="315.15" height="52.55" fill="white" transform="translate(0.424988 0.335266)"/>
</clipPath>
</defs>
</svg>
